<svg preserveAspectRatio="none" width="100%" height="100%" overflow="visible" style="display: block;" viewBox="0 0 201.603 101.039" fill="none" xmlns="http://www.w3.org/2000/svg">
<path id="Vector" d="M50.5197 50.5197V100.801C22.7498 100.801 0.237932 78.2895 0.237932 50.5197C0.237932 22.7498 22.7498 0.237932 50.5197 0.237932V50.5197ZM50.5197 50.5197C50.5197 78.2895 73.0316 100.801 100.801 100.801V50.5197M50.5197 50.5197C50.5197 22.7498 73.0316 0.237932 100.801 0.237932V50.5197M100.801 50.5197C100.801 78.2895 123.313 100.801 151.083 100.801C178.853 100.801 201.365 78.2895 201.365 50.5197C201.365 22.7498 178.853 0.237932 151.083 0.237932C123.313 0.237932 100.801 22.7498 100.801 50.5197Z" stroke="var(--stroke-0, white)" stroke-width="0.475864"/>
</svg>
