<svg width="309" height="72" viewBox="0 0 309 72" fill="none" xmlns="http://www.w3.org/2000/svg">
<g clip-path="url(#clip0_184_4142)">
<path d="M57.6841 10.3154C43.4998 10.3154 32 21.8152 32 35.9995C32 50.1839 43.4998 61.6836 57.6841 61.6836C71.8684 61.6836 83.3682 50.1839 83.3682 35.9995C83.3682 21.8152 71.8684 10.3154 57.6841 10.3154ZM46.66 43.2648H42.9861V28.7343H46.66V43.2648ZM53.0074 52.2833H49.3334V19.7158H53.0074V52.2833ZM59.5222 47.9415H55.8483V24.0575H59.5222V47.9415ZM66.037 52.2833H62.3631V19.7158H66.037V52.2833ZM72.3844 43.2648H68.7104V28.7343H72.3844V43.2648Z" fill="black"/>
<path d="M100.244 27.3442H92.3086V21.8701H115.096V27.3442H107.203V49.7921H100.244V27.3442Z" fill="black"/>
<path d="M115.943 41.2624V28.8291H122.393V40.4986C122.393 43.4266 124.006 44.7845 126.764 44.7845C130.244 44.7845 132.323 42.493 132.323 37.9101V28.8291H138.773V49.7918H132.323C132.45 48.349 132.578 46.6092 132.62 44.3177H132.535C131.602 48.349 128.759 50.1313 124.77 50.1313C119.338 50.1313 115.943 47.4155 115.943 41.2624Z" fill="black"/>
<path d="M142.041 28.8287H148.491L148.236 34.812H148.321C149.212 30.8232 151.462 28.4893 155.578 28.4893C159.694 28.4893 162.367 31.2475 162.367 36.6791C162.367 37.8673 162.24 39.7344 162.155 40.8377H156.299C156.384 39.8193 156.426 38.7584 156.426 38.1219C156.426 35.0666 155.196 33.836 153.159 33.836C150.401 33.836 148.491 36.0851 148.491 40.7529V49.7914H142.041V28.8287Z" fill="black"/>
<path d="M165.123 28.8287H171.573L171.318 34.3877H171.403C172.464 30.3988 174.925 28.4893 179.678 28.4893C184.728 28.4893 187.995 31.2475 187.995 36.6791V49.7914H181.545V38.1219C181.545 35.1515 179.848 33.836 177.005 33.836C173.61 33.836 171.573 35.8304 171.573 39.8193V49.7914H165.123V28.8287Z" fill="black"/>
<path d="M190.625 39.3525C190.625 32.5205 195.081 28.4893 201.531 28.4893C207.981 28.4893 211.715 31.9265 211.715 37.74H206.029C205.986 35.0242 204.374 33.4117 201.743 33.4117C198.73 33.4117 197.075 35.491 197.075 39.3101C197.075 43.1292 198.772 45.2085 201.616 45.2085C204.459 45.2085 206.029 43.6384 206.071 40.965H211.757C211.757 46.9907 207.472 50.1309 201.276 50.1309C195.081 50.1309 190.625 46.1421 190.625 39.3525Z" fill="black"/>
<path d="M213.285 43.7657C213.285 40.3285 215.746 37.8249 221.305 37.8249H228.137V36.4245C228.137 33.8785 226.694 32.86 223.724 32.86C221.305 32.86 219.905 33.8785 219.905 35.5758C219.905 35.7031 219.905 36.0426 219.947 36.467H214.007C213.964 36.1275 213.922 35.6607 213.922 35.2364C213.922 30.9929 217.656 28.4893 224.021 28.4893C230.386 28.4893 234.587 31.4597 234.587 37.061V49.7914H228.137C228.265 48.7306 228.434 46.821 228.434 45.548H228.392C227.755 48.5184 225.379 50.1309 221.56 50.1309C216.68 50.1309 213.285 48.0092 213.285 43.7657ZM228.137 41.7289V41.3045H221.899C220.16 41.3045 219.099 42.1108 219.099 43.2989C219.099 44.9114 220.499 45.7601 222.833 45.7601C226.185 45.7601 228.137 44.2749 228.137 41.7289Z" fill="black"/>
<path d="M237.219 42.7473H242.99C242.99 44.6993 243.966 45.9723 247.658 45.9723C251.01 45.9723 252.198 44.9963 252.198 43.4687C252.198 42.7049 251.816 42.1108 250.713 41.8562C249.61 41.6016 247.912 41.4318 245.833 41.2621C242.82 41.0075 240.486 40.5407 239.213 39.6496C238.025 38.8009 237.219 37.2732 237.219 35.5334C237.219 30.9929 241.887 28.4893 247.7 28.4893C254.575 28.4893 257.715 31.1202 257.715 36.0002H252.028C251.986 33.7936 250.968 32.6478 247.785 32.6478C244.899 32.6478 243.626 33.6238 243.626 35.0666C243.626 35.9577 243.966 36.6367 245.154 36.9337C246.215 37.1884 248.082 37.3581 250.331 37.5703C252.92 37.8249 254.744 38.0795 256.314 38.9706C257.672 39.7344 258.648 41.3045 258.648 43.1292C258.648 47.5424 254.872 50.1309 247.7 50.1309C240.529 50.1309 237.219 46.9907 237.219 42.7473Z" fill="black"/>
<path d="M263.275 42.5767V33.8352H260.178V28.8279H262.681C263.657 28.8279 263.997 28.2762 264.124 27.0032L264.421 24.0752H269.726V28.8279H276.43V33.8352H269.726V42.2372C269.726 44.4014 270.744 45.0803 273.29 45.0803C274.181 45.0803 275.497 44.953 276.218 44.7833V49.6633C275.666 49.7906 273.884 50.13 272.144 50.13C265.609 50.13 263.275 47.2445 263.275 42.5767Z" fill="black"/>
</g>
<defs>
<clipPath id="clip0_184_4142">
<rect width="244.43" height="51.3682" fill="white" transform="translate(32 10.3154)"/>
</clipPath>
</defs>
</svg>
