<svg width="232" height="72" viewBox="0 0 232 72" fill="none" xmlns="http://www.w3.org/2000/svg">
<path d="M88.3803 44.5232C93.3363 39.7968 85.4621 27.2311 85.4621 27.2311H80.5582L74.0042 43.7165C74.0042 43.7165 83.9496 48.7487 88.3803 44.5232Z" fill="black"/>
<path d="M52.8815 33.5033C52.8815 33.5033 66.8043 40.7744 72.395 35.4634C75.6059 32.4131 78.1009 21.9172 78.1009 21.9172L71.1754 21.2639L52.8815 33.5033Z" fill="black"/>
<path d="M35.1104 22.7012C35.1104 22.7012 46.3073 27.5159 53.5784 26.4036C61.4626 25.1974 71.1754 16.037 71.1754 16.037L66.5584 15.3837L35.1104 22.7012Z" fill="black"/>
<path d="M168.145 15.9473C168.587 16.3894 168.808 16.9641 168.808 17.6273C168.808 18.3346 168.587 18.8652 168.145 19.3073C167.702 19.7494 167.128 19.9704 166.465 19.9704C165.757 19.9704 165.227 19.7494 164.785 19.3073C164.343 18.8652 164.121 18.3346 164.121 17.6273C164.121 16.9641 164.343 16.3894 164.785 15.9473C165.227 15.5052 165.757 15.2842 166.465 15.2842C167.128 15.2842 167.702 15.5052 168.145 15.9473Z" fill="black"/>
<path d="M106.552 27.3092H102.484V23.9935H106.552V17.6715H110.177V23.9935H116.267C118.437 23.9935 120.381 25.3372 121.147 27.3675L126.814 42.3847L133.534 23.9935H137.381L126.991 50.3424C126.461 51.7129 125.974 52.7298 125.577 53.3929C125.134 54.1003 124.648 54.5866 124.029 54.896C123.41 55.2497 122.57 55.3823 121.553 55.3823H117.221V52.0666H120.448C121.156 52.0666 121.686 52.0224 122.04 51.8456C122.393 51.7129 122.659 51.4919 122.88 51.1382C123.101 50.7845 123.366 50.2098 123.72 49.414L124.869 46.7173L117.964 28.9714C117.574 27.9692 116.609 27.3092 115.534 27.3092H110.177V40.6163C110.177 41.5889 110.354 42.2521 110.707 42.65C111.061 43.0478 111.724 43.2247 112.652 43.2247H116.587V46.5404H112.431C110.309 46.5404 108.762 46.0983 107.878 45.1257C106.994 44.1973 106.552 42.6942 106.552 40.6605V27.3092Z" fill="black"/>
<path fill-rule="evenodd" clip-rule="evenodd" d="M159.979 29.0776C159.05 27.3534 157.768 26.0271 156.133 25.0987C154.497 24.2145 152.64 23.7282 150.562 23.7282C147.291 23.7282 144.682 25.0545 142.826 27.6187L142.339 23.9935H139.2V55.3823H142.826V43.0921C143.533 44.2415 144.55 45.1699 145.876 45.8331C147.158 46.4962 148.705 46.8057 150.562 46.8057C152.596 46.8057 154.453 46.3194 156.133 45.3468C157.768 44.3741 159.05 43.0478 159.979 41.2795C160.907 39.5553 161.394 37.5659 161.394 35.2669C161.394 32.8796 160.907 30.846 159.979 29.0776ZM157.68 35.2669C157.68 37.7427 156.973 39.7321 155.602 41.2795C154.232 42.8268 152.419 43.5784 150.209 43.5784C148.75 43.5784 147.468 43.2247 146.318 42.5173C145.169 41.81 144.329 40.8374 143.71 39.5553C143.091 38.2732 142.781 36.8143 142.781 35.1785C142.781 33.587 143.091 32.1723 143.71 30.9344C144.329 29.6965 145.169 28.7239 146.318 28.0166C147.468 27.3092 148.75 26.9555 150.209 26.9555C152.419 26.9555 154.232 27.7513 155.602 29.2986C156.973 30.846 157.68 32.8354 157.68 35.2669Z" fill="black"/>
<path fill-rule="evenodd" clip-rule="evenodd" d="M193.757 46.5404V15.5936H190.132V27.4418C189.38 26.2924 188.363 25.4082 187.081 24.745C185.755 24.0819 184.208 23.7282 182.395 23.7282C180.317 23.7282 178.46 24.2145 176.825 25.1871C175.145 26.1598 173.862 27.5303 172.934 29.2544C172.006 31.0228 171.564 33.0123 171.564 35.2669C171.564 37.6543 172.006 39.7321 172.934 41.4563C173.862 43.2247 175.145 44.551 176.78 45.4352C178.416 46.3636 180.273 46.8057 182.395 46.8057C185.666 46.8057 188.231 45.5236 190.132 42.9152L190.618 46.5404H193.757ZM189.247 39.6437C188 42.1387 185.515 43.5784 182.749 43.5784C180.494 43.5784 178.681 42.8268 177.311 41.2795C175.94 39.7321 175.277 37.7427 175.277 35.2669C175.277 32.8354 175.94 30.846 177.311 29.2986C178.681 27.7513 180.494 26.9555 182.749 26.9555C185.547 26.9555 188.03 28.5012 189.247 31.0228C189.866 32.3049 190.176 33.7638 190.176 35.3554C190.176 36.9469 189.866 38.4058 189.247 39.6437Z" fill="black"/>
<path d="M164.652 23.9935H168.277V46.5404H164.652V23.9935Z" fill="black"/>
</svg>
